<?xml version="1.0" encoding="UTF-8"?><svg xmlns="http://www.w3.org/2000/svg" viewBox="0 0 175 95"><defs><style>.c{fill:#1d1d1b;}</style></defs><g id="a"/><g id="b"><g><rect class="c" x="9.68" y="67.24" width="69.25" height="2.9"/><rect class="c" x="5.76" y="72.18" width="76.95" height="2.9"/><rect class="c" x="2.13" y="77.12" width="84.35" height="2.9"/><rect class="c" x="9.68" y="30.64" width="69.25" height="2.9"/><polygon class="c" points="23.69 28.77 44.3 22.6 64.49 28.77 72.91 28.77 44.3 19.91 15.27 28.77 23.69 28.77"/><polygon class="c" points="9.68 28.77 44.09 18.24 78.93 28.77 78.93 25.65 44.3 14.98 9.68 25.65 9.68 28.77"/><path class="c" d="M13.74,63.48s0,2.18,2.47,2.18,2.32-2.18,2.32-2.18v-28.17h-1.82v28.24s0,.51-.65,.51-.51-.65-.51-.65v-28.1h-1.81v28.17Z"/><polygon class="c" points="25.14 65.66 26.59 65.66 26.59 47.42 28.41 65.66 29.93 65.66 29.93 35.32 28.41 35.32 28.41 51.53 26.59 35.32 25.14 35.32 25.14 65.66"/><polygon class="c" points="36.68 65.66 41.33 65.66 41.33 64.06 38.71 64.06 38.71 50.34 40.68 50.34 40.68 48.67 38.71 48.67 38.71 36.84 40.68 36.84 40.68 35.32 36.68 35.32 36.68 65.66"/><path class="c" d="M63.4,44.32v-6.82s-.07-2.18-2.39-2.18-2.32,2.18-2.32,2.18v25.99s-.08,2.18,2.32,2.18,2.39-2.18,2.39-2.18v-7.62h-1.81v7.62s0,.58-.58,.58c-.54,0-.65-.58-.65-.58v-25.99s0-.65,.65-.65c.58,0,.58,.65,.58,.65v6.82h1.81Z"/><path class="c" d="M74.94,37.49s.15-2.18-2.4-2.18-2.54,2.18-2.54,2.18v25.99s0,2.18,2.39,2.18c2.54,0,2.54-2.18,2.54-2.18v-25.99Zm-1.74,25.99s.07,.58-.65,.58-.72-.58-.72-.58v-25.99s0-.65,.65-.65c.73,0,.73,.65,.73,.65v25.99Z"/><path class="c" d="M50.11,63.48s0,.58-.47,.54c-.47-.04-.47-.54-.47-.54v-7.62h-1.89v7.62s-.07,2.18,2.32,2.18,2.4-2.18,2.4-2.18c0,0,0-5.08,0-6.57,0-3.56-2.83-10.35-2.83-12.6v-6.83s-.07-.65,.43-.65,.51,.65,.51,.65v6.82h1.89v-6.82s.07-2.25-2.32-2.18c-2.4,.07-2.4,2.18-2.4,2.18v5.81c0,3.81,2.83,10.24,2.83,13.18v7.01Z"/></g><path class="c" d="M165.93,15.2c-8.06,3.34-12.72,11.47-12.04,19.74-5.36-6.32-14.4-8.78-22.47-5.44l-.86,.36,.36,.86,5.36,12.94,.36,.86,.86-.36c3.79-1.57,7.81-1.72,11.49-.71-1.94,3.42-4.97,6.1-8.62,7.61-3.69,1.53-7.7,1.77-11.49,.72-.6-.17-1.21-.37-1.8-.6-.3,.55-.57,1.11-.82,1.69-2.04,4.78-2.13,10.24-.08,15.19,4.14,9.99,15.63,14.75,25.62,10.61,9.99-4.14,14.75-15.63,10.61-25.62-3.74-9.04,.57-19.44,9.6-23.18l.86-.36-.36-.86-5.36-12.94-.36-.86-.86,.36Zm-28.28,26.9l-4.64-11.21c8.83-3.13,18.68,1.19,22.31,9.94l2.16,5.23c-5.23-4.74-12.83-6.47-19.83-3.95m13.13,1.96c4.05,1.6,7.52,4.67,9.51,8.85l-15.5,6.42-2.87-6.92c3.77-1.78,6.87-4.7,8.86-8.35m-22.77,9.42c4,1.19,8.24,1.07,12.19-.35l2.87,6.92-15.5,6.42c-1.52-4.28-1.32-8.92,.45-12.99m.26,14.71l15.51-6.42,2.87,6.92c-3.77,1.77-6.87,4.7-8.86,8.36-4.05-1.6-7.51-4.67-9.51-8.86m21.93,9.08c-3.53,1.25-7.22,1.31-10.61,.38,1.79-3.15,4.5-5.67,7.77-7.23l2.84,6.85Zm-1.11-7.57c3.42-1.21,7.12-1.34,10.61-.39-1.74,3.06-4.39,5.63-7.77,7.24l-2.84-6.85Zm11.46-2.09c-3.99-1.18-8.26-1.05-12.17,.36l-2.87-6.92,15.51-6.42c1.55,4.37,1.27,8.99-.46,12.99m-1.34-22.28l-2.17-5.23c-3.62-8.75,.3-18.77,8.75-22.8l4.64,11.21c-6.73,3.17-10.88,9.76-11.23,16.82"/><g><path class="c" d="M104.33,2.81c0,.49-.4,.89-.89,.89s-.89-.4-.89-.89,.4-.89,.89-.89,.89,.4,.89,.89"/><path class="c" d="M104.33,8.4c0,.49-.4,.89-.89,.89s-.89-.4-.89-.89,.4-.89,.89-.89,.89,.4,.89,.89"/><path class="c" d="M104.33,13.99c0,.49-.4,.89-.89,.89s-.89-.4-.89-.89,.4-.89,.89-.89,.89,.4,.89,.89"/><path class="c" d="M104.33,19.57c0,.49-.4,.89-.89,.89s-.89-.4-.89-.89,.4-.89,.89-.89,.89,.4,.89,.89"/><path class="c" d="M104.33,25.16c0,.49-.4,.89-.89,.89s-.89-.4-.89-.89,.4-.89,.89-.89,.89,.4,.89,.89"/><path class="c" d="M104.33,30.74c0,.49-.4,.89-.89,.89s-.89-.4-.89-.89,.4-.89,.89-.89,.89,.4,.89,.89"/><path class="c" d="M104.33,36.33c0,.49-.4,.89-.89,.89s-.89-.4-.89-.89,.4-.89,.89-.89,.89,.4,.89,.89"/><path class="c" d="M104.33,41.91c0,.49-.4,.89-.89,.89s-.89-.4-.89-.89,.4-.89,.89-.89,.89,.4,.89,.89"/><path class="c" d="M104.33,47.5c0,.49-.4,.89-.89,.89s-.89-.4-.89-.89,.4-.89,.89-.89,.89,.4,.89,.89"/><path class="c" d="M104.33,53.09c0,.49-.4,.89-.89,.89s-.89-.4-.89-.89,.4-.89,.89-.89,.89,.4,.89,.89"/><path class="c" d="M104.33,58.67c0,.49-.4,.89-.89,.89s-.89-.4-.89-.89,.4-.89,.89-.89,.89,.4,.89,.89"/><path class="c" d="M104.33,64.26c0,.49-.4,.89-.89,.89s-.89-.4-.89-.89,.4-.89,.89-.89,.89,.4,.89,.89"/><path class="c" d="M104.33,69.84c0,.49-.4,.89-.89,.89s-.89-.4-.89-.89,.4-.89,.89-.89,.89,.4,.89,.89"/><path class="c" d="M104.33,75.43c0,.49-.4,.89-.89,.89s-.89-.4-.89-.89,.4-.89,.89-.89,.89,.4,.89,.89"/><path class="c" d="M104.33,81.01c0,.49-.4,.89-.89,.89s-.89-.4-.89-.89,.4-.89,.89-.89,.89,.4,.89,.89"/><path class="c" d="M104.33,86.6c0,.49-.4,.89-.89,.89s-.89-.4-.89-.89,.4-.89,.89-.89,.89,.4,.89,.89"/><path class="c" d="M104.33,92.19c0,.49-.4,.89-.89,.89s-.89-.4-.89-.89,.4-.89,.89-.89,.89,.4,.89,.89"/></g><g/></g></svg>