<?xml version="1.0" encoding="UTF-8"?><svg xmlns="http://www.w3.org/2000/svg" viewBox="0 0 50 70"><defs><style>.c{fill:#1d1d1b;}</style></defs><g id="a"><path class="c" d="M42.16,2.7c-8.06,3.34-12.72,11.47-12.04,19.74-5.36-6.32-14.4-8.78-22.47-5.44l-.86,.36,.36,.86,5.36,12.94,.36,.86,.86-.36c3.79-1.57,7.81-1.72,11.49-.71-1.94,3.42-4.97,6.1-8.62,7.61-3.69,1.53-7.7,1.77-11.49,.72-.6-.17-1.21-.37-1.8-.6-.3,.55-.57,1.11-.82,1.69-2.04,4.78-2.13,10.24-.08,15.19,4.14,9.99,15.63,14.75,25.62,10.61,9.99-4.14,14.75-15.63,10.61-25.62-3.74-9.04,.57-19.44,9.6-23.18l.86-.36-.36-.86-5.36-12.94-.36-.86-.86,.36ZM13.88,29.6l-4.64-11.21c8.83-3.13,18.68,1.19,22.31,9.94l2.16,5.23c-5.23-4.74-12.83-6.47-19.83-3.95m13.13,1.96c4.05,1.6,7.52,4.67,9.51,8.85l-15.5,6.42-2.87-6.92c3.77-1.78,6.87-4.7,8.86-8.35M4.24,40.98c4,1.19,8.24,1.07,12.19-.35l2.87,6.92-15.5,6.42c-1.52-4.28-1.32-8.92,.45-12.99m.26,14.71l15.51-6.42,2.87,6.92c-3.77,1.77-6.87,4.7-8.86,8.36-4.05-1.6-7.51-4.67-9.51-8.86m21.93,9.08c-3.53,1.25-7.22,1.31-10.61,.38,1.79-3.15,4.5-5.67,7.77-7.23l2.84,6.85Zm-1.11-7.57c3.42-1.21,7.12-1.34,10.61-.39-1.74,3.06-4.39,5.63-7.77,7.24l-2.84-6.85Zm11.46-2.09c-3.99-1.18-8.26-1.05-12.17,.36l-2.87-6.92,15.51-6.42c1.55,4.37,1.27,8.99-.46,12.99m-1.34-22.28l-2.17-5.23c-3.62-8.75,.3-18.77,8.75-22.8l4.64,11.21c-6.73,3.17-10.88,9.76-11.23,16.82"/></g><g id="b"/></svg>